# xmcd CD database file
#
# Track frame offsets:
#	212
#	13460
#	23900
#	34995
#	53545
#	64512
#	75362
#	84662
#	94375
#	105902
#	116707
#	126210
#	136860
#	148557
#	158265
#	170040
#
# Disc length: 2402 seconds
#
# Revision: 4
# Processed by: cddbd v1.5.1PL2 Copyright (c) Steve Scherf et al.
# Submitted via: CDex 1.51
#
DISCID=c9096010
DTITLE=Little Richard - Greatest Hits
DYEAR=1987
DGENRE=Rock and Roll
TTITLE0=Whole Lotta Shakin' Goin' On
TTITLE1=Money Honey
TTITLE2=Lucille
TTITLE3=I Don't Know What You Got
TTITLE4=She's Got It
TTITLE5=Hound Dog
TTITLE6=Jenny Jenny
TTITLE7=Good Golly Miss Molly
TTITLE8=The Girl Can't Help It
TTITLE9=Tutti Frutti
TTITLE10=Goodnight Irene
TTITLE11=Keep A Knockin'
TTITLE12=Cherry Red
TTITLE13=Long Tall Sally
TTITLE14=Slippin' And Slidin'
TTITLE15=Groovy Litlle Suzy
EXTD=YEAR: 1987
EXTT0=
EXTT1=
EXTT2=
EXTT3=
EXTT4=
EXTT5=
EXTT6=
EXTT7=
EXTT8=
EXTT9=
EXTT10=
EXTT11=
EXTT12=
EXTT13=
EXTT14=
EXTT15=
PLAYORDER=
